<svg width="321" height="167" viewBox="0 0 321 167" fill="none" xmlns="http://www.w3.org/2000/svg">
<path d="M171.725 160.187C354.311 194.96 331.796 88.1897 297.715 30.4581C265.984 -12.0343 209.983 -2.97718 175.683 15.0778C156.626 25.1085 118.929 21.3242 103.123 15.0779C64.2046 -0.302378 35.0392 8.684 16.7112 25.1084C4.04685 36.4574 -56.5081 116.721 171.725 160.187Z" fill="white"/>
<path fill-rule="evenodd" clip-rule="evenodd" d="M63.1229 87.5742C63.1229 87.5742 60.3153 97.4021 57.7539 99.4672C55.1925 101.532 53.459 101.533 53.459 102.772C53.459 104.092 59.2404 104.092 61.6349 101.288C64.0309 98.5637 70.8857 92.4507 70.8857 92.4507C70.8857 92.4507 64.4433 90.9671 63.1229 87.5787" fill="#D20074"/>
<path fill-rule="evenodd" clip-rule="evenodd" d="M97.9766 91.5366C97.9766 91.5366 101.694 95.9963 101.858 96.5741C102.023 97.152 101.28 100.29 99.7939 100.29C98.3081 100.29 97.9766 100.869 97.9766 101.612C97.9766 102.356 100.206 103.677 103.18 102.191C106.154 100.705 105.575 97.1534 106.153 94.7575L101.363 91.4543C101.363 91.2889 100.041 91.866 97.9766 91.5374" fill="#D20074"/>
<path fill-rule="evenodd" clip-rule="evenodd" d="M52.3832 73.368C52.1872 73.368 51.9956 73.3099 51.8327 73.201C51.6697 73.0922 51.5427 72.9374 51.4677 72.7564C51.3927 72.5753 51.373 72.3761 51.4112 72.1839C51.4493 71.9917 51.5437 71.8151 51.6822 71.6765C51.8207 71.5378 51.9972 71.4434 52.1894 71.4051C52.3816 71.3668 52.5808 71.3863 52.7619 71.4612C52.943 71.5361 53.0979 71.663 53.2068 71.8259C53.3158 71.9887 53.3741 72.1803 53.3742 72.3762C53.3794 72.5078 53.3574 72.639 53.3094 72.7617C53.2615 72.8843 53.1887 72.9957 53.0956 73.0888C53.0025 73.182 52.8912 73.2549 52.7686 73.3029C52.646 73.351 52.5148 73.3731 52.3832 73.368ZM124.485 97.815C123.164 95.0073 121.925 89.6383 120.603 89.0619C119.28 88.4855 113.583 84.0245 113.583 81.0507C113.466 77.4297 112.968 73.8311 112.099 70.3141C111.52 68.6621 113.916 66.3492 113.583 59.5775C113.252 51.4008 109.288 42.3162 104.333 37.5258C99.2936 32.7353 98.9635 35.8738 100.285 37.8566C101.606 39.921 106.563 45.29 107.555 54.5401C108.463 63.7908 104.582 68.8283 101.277 69.1584C97.9725 69.4885 91.2831 68.2504 84.0158 68.4166C76.6655 68.6636 73.3616 69.4069 67.9102 68.3335C63.0382 67.3417 59.8166 64.9473 56.3473 64.9473C54.8637 62.6344 52.2178 61.3125 52.0524 62.3036C51.8869 63.0453 52.5479 65.0296 52.961 66.1861C51.9845 66.6953 51.0462 67.2747 50.1534 67.9196C49.4116 68.6614 49.2447 73.4541 47.5928 74.7752C45.9408 76.0963 48.1713 78.6569 49.0763 79.0701C50.7283 79.7303 53.0412 79.3186 55.1055 79.0701C56.1471 78.9189 57.21 79.0368 58.1931 79.4127C59.1762 79.7887 60.0466 80.41 60.7216 81.2176C61.9831 82.6497 63.0649 84.2305 63.9432 85.9249C65.5951 89.8074 73.6056 90.3853 78.066 95.011C82.5263 99.6368 84.0136 102.28 82.691 103.518C81.3706 104.839 80.1304 105.748 81.2074 106.325C82.2845 106.903 85.667 107.647 86.5757 103.931C87.4844 100.215 87.1543 100.958 86.411 98.1495C85.6678 95.3411 83.8504 91.1293 80.2995 88.487C78.4722 87.2385 76.7833 85.7987 75.2613 84.1921C75.2613 84.1921 81.2074 86.5866 84.3466 89.5597C84.3466 89.5597 98.2224 90.1382 100.865 89.5597C99.1663 87.939 97.7185 86.0739 96.5698 84.0259C96.4882 83.8605 96.4051 83.7775 96.4051 83.6128C97.4784 84.6031 100.865 87.6592 102.681 89.0634C104.911 90.7154 106.893 92.2842 109.536 92.0365C113.996 91.7056 115.814 92.0365 118.457 94.4309C121.017 96.8254 122.916 103.352 125.146 103.516C127.294 103.762 125.807 100.623 124.486 97.8142L124.485 97.815Z" fill="#D20074"/>
<path d="M259.475 56.457C259.486 56.65 259.456 56.8432 259.388 57.0241C259.32 57.2051 259.214 57.3697 259.079 57.5074C258.934 57.6398 258.764 57.7423 258.579 57.8089C258.394 57.8755 258.198 57.9048 258.002 57.8953C257.758 57.8945 257.518 57.8391 257.299 57.7332C257.079 57.6273 256.887 57.4736 256.735 57.2833C256.385 56.8865 256.198 56.3734 256.208 55.845C256.197 55.651 256.228 55.4569 256.297 55.2756C256.367 55.0942 256.475 54.9298 256.613 54.7932C256.756 54.6605 256.925 54.5578 257.108 54.4912C257.292 54.4246 257.487 54.3953 257.682 54.4052C257.925 54.4063 258.166 54.462 258.385 54.568C258.604 54.674 258.797 54.8277 258.949 55.0179C259.297 55.4151 259.484 55.9281 259.474 56.4562L259.475 56.457ZM259.664 63.6515V74.8525H256.786V63.6515C256.816 62.8599 256.681 62.0706 256.389 61.3342C256.119 60.7487 255.504 60.4557 254.546 60.4552H253.908V59.8173H256.786C257.255 59.808 257.724 59.8546 258.182 59.956C258.537 60.0415 258.853 60.2446 259.078 60.5323C259.327 60.8836 259.484 61.2917 259.534 61.7192C259.632 62.3583 259.676 63.0044 259.668 63.6508L259.664 63.6515ZM245.714 71.01V61.0924H243.474V59.8165H245.714V56.9302L247.317 55.0179H248.591V59.8165H252.434V61.0924H248.591V71.0093C248.591 72.9335 249.338 73.8956 250.832 73.8956C251.3 73.9092 251.766 73.8422 252.21 73.6975C252.563 73.576 252.906 73.4272 253.236 73.2524L253.555 73.8985C253.383 74.0251 253.185 74.1631 252.961 74.3124C252.704 74.4785 252.431 74.6172 252.145 74.7264C251.782 74.8662 251.408 74.9727 251.026 75.0446C250.543 75.1363 250.052 75.1798 249.56 75.1744C248.542 75.2161 247.547 74.8608 246.786 74.1834C246.397 73.7579 246.101 73.2559 245.917 72.7094C245.733 72.163 245.665 71.5842 245.718 71.01H245.714ZM242.802 71.01C242.816 71.6347 242.668 72.2524 242.371 72.8022C242.082 73.315 241.685 73.7589 241.208 74.1033C240.667 74.4753 240.062 74.7469 239.424 74.9051C238.697 75.0879 237.949 75.1777 237.199 75.1722C236.143 75.197 235.089 75.0838 234.063 74.8354C233.386 74.6827 232.761 74.3594 232.245 73.8963C231.858 73.5315 231.608 73.0449 231.538 72.5181C231.467 71.8598 231.436 71.198 231.443 70.536H232.081C232.206 71.4964 232.686 72.3753 233.426 73.0002C234.335 73.6548 235.444 73.9717 236.562 73.8963C237.498 73.9706 238.433 73.7443 239.232 73.2502C239.494 73.0749 239.709 72.8378 239.858 72.5598C240.007 72.2818 240.085 71.9714 240.085 71.6561C240.09 71.3497 240.028 71.0458 239.903 70.766C239.778 70.4861 239.593 70.237 239.362 70.0361C238.714 69.5009 237.983 69.0736 237.199 68.7706L235.287 67.9769C234.235 67.5875 233.271 66.9929 232.452 66.2278C232.117 65.8899 231.854 65.487 231.681 65.0439C231.508 64.6009 231.427 64.127 231.443 63.6515C231.421 63.0539 231.547 62.4601 231.808 61.9221C232.069 61.3842 232.459 60.9187 232.942 60.5665C233.446 60.2004 234.013 59.9292 234.615 59.7661C235.303 59.5814 236.013 59.4916 236.725 59.499C237.738 59.4752 238.749 59.588 239.731 59.8343C240.398 59.9935 241.014 60.3163 241.524 60.7734C241.906 61.1413 242.152 61.6272 242.222 62.1524C242.299 62.8102 242.333 63.4722 242.325 64.1345H241.679C241.559 63.176 241.086 62.2968 240.352 61.6695C239.493 61.0254 238.433 60.7077 237.362 60.7734C236.518 60.7165 235.679 60.9408 234.976 61.4114C234.724 61.5954 234.519 61.8367 234.378 62.1153C234.237 62.394 234.164 62.7021 234.165 63.0144C234.169 63.2994 234.231 63.5806 234.346 63.8412C234.462 64.1018 234.629 64.3363 234.837 64.5306C235.381 65.0522 236.022 65.462 236.724 65.7367L238.637 66.5378C239.774 66.9518 240.828 67.5677 241.748 68.3559C242.102 68.698 242.38 69.1115 242.562 69.5691C242.744 70.0267 242.827 70.5179 242.805 71.01H242.802ZM219.51 74.8525V63.6515C219.54 62.8599 219.405 62.0706 219.113 61.3342C218.843 60.7487 218.228 60.4557 217.269 60.4552H216.95V59.8173H219.51C220.144 59.7807 220.777 59.902 221.353 60.1704C221.775 60.4066 222.091 60.795 222.237 61.2563H222.393C222.798 60.7787 223.285 60.3769 223.831 60.0695C224.567 59.6677 225.397 59.4712 226.235 59.5005C226.58 59.5027 226.923 59.54 227.261 59.6118C227.581 59.67 227.886 59.7934 228.157 59.9745C228.39 60.1438 228.594 60.3506 228.76 60.5865C228.951 60.8499 229.125 61.126 229.279 61.4128L227.995 62.3772C227.73 62.0342 227.366 61.7814 226.952 61.6532C226.464 61.4872 225.951 61.4056 225.436 61.4121C224.823 61.406 224.218 61.5542 223.678 61.8431C223.159 62.1214 222.718 62.5241 222.394 63.0151V74.8532L219.51 74.8525ZM205.922 66.5386H212.641C212.724 65.0664 212.437 63.597 211.805 62.2644C211.573 61.8 211.211 61.4126 210.764 61.1482C210.316 60.8838 209.803 60.7537 209.283 60.7734C208.801 60.7699 208.33 60.9209 207.939 61.2044C207.504 61.5227 207.142 61.9314 206.879 62.4024C206.559 62.974 206.324 63.5892 206.181 64.2286C206.005 64.9856 205.92 65.7608 205.928 66.5378L205.922 66.5386ZM215.675 66.5386L215.614 67.8137H205.928C205.922 68.6324 206.017 69.4487 206.212 70.2438C206.383 70.9346 206.671 71.5906 207.065 72.1828C207.414 72.7056 207.88 73.1393 208.427 73.449C208.983 73.7535 209.61 73.907 210.245 73.8941C211.162 73.928 212.069 73.6945 212.855 73.222C213.599 72.7252 214.235 72.0837 214.725 71.3357L215.362 71.8089C214.825 72.8612 213.997 73.7373 212.977 74.3331C211.957 74.9288 210.787 75.2193 209.607 75.17C208.59 75.1953 207.581 74.9832 206.66 74.5506C205.848 74.1488 205.134 73.5758 204.566 72.8712C203.987 72.1334 203.557 71.2905 203.299 70.3892C203.017 69.3944 202.878 68.3647 202.886 67.3308C202.878 66.2986 203.023 65.2709 203.317 64.2813C203.576 63.3808 204.006 62.5383 204.582 61.7993C205.125 61.1002 205.813 60.5268 206.599 60.1184C207.431 59.6947 208.354 59.4818 209.287 59.4983C211.463 59.4983 213.074 60.1043 214.121 61.3164C215.167 62.5285 215.687 64.269 215.682 66.5378L215.675 66.5386ZM186.509 74.8525V57.5771C186.54 56.7854 186.404 55.9961 186.112 55.2597C185.849 54.6663 185.234 54.3696 184.269 54.3696H183.631V53.7324H186.509C186.979 53.7237 187.448 53.7736 187.905 53.8808C188.26 53.9671 188.576 54.1707 188.801 54.4586C189.051 54.808 189.21 55.2133 189.266 55.6388C189.363 56.2802 189.406 56.9285 189.396 57.5771V60.4552C189.943 60.1968 190.507 59.9779 191.084 59.8002C191.835 59.585 192.613 59.4835 193.393 59.499C194.29 59.4648 195.182 59.6577 195.984 60.0596C196.787 60.4616 197.476 61.0597 197.986 61.7986C198.508 62.5502 198.888 63.3915 199.106 64.2806C199.588 66.2882 199.588 68.3815 199.106 70.3892C198.887 71.2735 198.517 72.1133 198.011 72.8712C197.548 73.5589 196.935 74.133 196.219 74.5506C195.454 74.9779 194.588 75.1923 193.712 75.1714C192.739 75.22 191.769 75.0212 190.893 74.5936C190.323 74.2996 189.814 73.899 189.395 73.4134H189.231L188.115 74.8517L186.509 74.8525ZM189.396 61.7303V71.9758C189.736 72.4883 190.163 72.9372 190.657 73.3021C191.27 73.7255 192.006 73.9341 192.751 73.8956C193.344 73.9108 193.926 73.7282 194.405 73.3763C194.888 73.0082 195.28 72.5335 195.551 71.9892C195.884 71.334 196.11 70.6302 196.223 69.904C196.371 69.0534 196.443 68.1912 196.438 67.3278C196.443 66.4641 196.368 65.6017 196.215 64.7516C196.091 64.0263 195.852 63.3253 195.509 62.6746C195.215 62.1204 194.793 61.6447 194.277 61.2875C193.731 60.9285 193.087 60.7472 192.433 60.7682C191.913 60.7744 191.399 60.8765 190.916 61.0694C190.395 61.2796 189.891 61.4996 189.403 61.7296L189.396 61.7303ZM181.943 74.8525H180.349L179.229 73.4141H179.065C178.625 73.9073 178.092 74.3084 177.497 74.5943C176.586 75.0189 175.587 75.2171 174.584 75.1722C174.086 75.1652 173.591 75.0957 173.111 74.9652C172.57 74.8216 172.06 74.5759 171.611 74.2413C171.12 73.8792 170.717 73.4112 170.431 72.8719C170.086 72.1987 169.92 71.4483 169.949 70.6925C169.919 69.9131 170.156 69.1469 170.621 68.5206C171.095 67.92 171.711 67.4462 172.413 67.1416C173.24 66.7801 174.114 66.5393 175.009 66.4266C176.037 66.2798 177.074 66.2079 178.111 66.2114H179.068C179.087 65.2941 179 64.3776 178.809 63.4802C178.695 62.8833 178.457 62.3169 178.111 61.8171C177.841 61.4443 177.466 61.1602 177.034 61.0011C176.608 60.8502 176.159 60.7749 175.707 60.7786C174.914 60.7514 174.131 60.952 173.449 61.3565C172.761 61.8761 172.308 62.6477 172.188 63.5017H170.757C170.755 62.9831 170.787 62.465 170.853 61.9506C170.93 61.4423 171.176 60.9746 171.551 60.6236C171.788 60.4005 172.065 60.2244 172.367 60.1043C172.745 59.9469 173.137 59.8288 173.539 59.752C173.989 59.6623 174.443 59.5989 174.9 59.5621C175.377 59.5215 175.862 59.5015 176.356 59.502C177.061 59.4997 177.763 59.5778 178.45 59.7349C179.121 59.8948 179.739 60.2272 180.242 60.6992C180.821 61.2662 181.25 61.9679 181.491 62.7414C181.829 63.8667 181.983 65.0392 181.948 66.2137L181.943 74.8525ZM179.065 71.8112V67.4947H178.116C176.802 67.4227 175.496 67.7277 174.35 68.3737C173.939 68.6056 173.597 68.9424 173.36 69.3497C173.122 69.757 172.997 70.2202 172.997 70.6918C172.987 71.152 173.072 71.6092 173.247 72.0352C173.404 72.3982 173.633 72.726 173.919 72.9995C174.198 73.2509 174.526 73.4416 174.883 73.5595C175.254 73.6754 175.641 73.7335 176.029 73.7316C176.707 73.7698 177.375 73.5587 177.907 73.1382C178.357 72.753 178.749 72.3059 179.072 71.8104L179.065 71.8112ZM167.296 74.8525H165.701L164.581 73.4141H164.417C163.978 73.9073 163.445 74.3084 162.849 74.5943C161.939 75.0188 160.94 75.217 159.937 75.1722C159.439 75.1652 158.943 75.0957 158.462 74.9652C157.921 74.8215 157.412 74.5757 156.963 74.2413C156.472 73.8794 156.068 73.4114 155.783 72.8719C155.438 72.1988 155.272 71.4484 155.3 70.6925C155.27 69.9131 155.508 69.1468 155.973 68.5206C156.447 67.92 157.063 67.4462 157.765 67.1416C158.592 66.7802 159.466 66.5394 160.361 66.4266C161.388 66.2798 162.425 66.2079 163.462 66.2114H164.419C164.438 65.2941 164.351 64.3776 164.16 63.4802C164.046 62.8831 163.808 62.3166 163.462 61.8171C163.192 61.4441 162.817 61.16 162.385 61.0011C161.959 60.8501 161.51 60.7748 161.058 60.7786C160.266 60.7514 159.482 60.9519 158.801 61.3565C158.46 61.6136 158.173 61.9354 157.957 62.3035C157.74 62.6716 157.598 63.0788 157.54 63.5017H156.101C156.098 62.9831 156.13 62.465 156.195 61.9506C156.272 61.4423 156.517 60.9746 156.893 60.6236C157.13 60.4006 157.406 60.2244 157.709 60.1043C158.086 59.9469 158.479 59.8288 158.881 59.752C159.33 59.6623 159.785 59.5989 160.242 59.5621C160.719 59.5215 161.204 59.5015 161.698 59.502C162.402 59.4997 163.105 59.5778 163.791 59.7349C164.463 59.8948 165.08 60.2272 165.583 60.6992C166.162 61.2661 166.592 61.9678 166.833 62.7414C167.17 63.8667 167.325 65.0392 167.29 66.2137L167.296 74.8525ZM164.417 71.8112V67.4947H163.46C162.151 67.424 160.848 67.7281 159.705 68.3715C159.294 68.6034 158.953 68.9403 158.715 69.3476C158.477 69.7549 158.352 70.218 158.353 70.6896C158.343 71.1497 158.428 71.607 158.602 72.0329C158.759 72.3959 158.988 72.7238 159.274 72.9973C159.553 73.2486 159.881 73.4393 160.238 73.5573C160.609 73.6732 160.996 73.7313 161.384 73.7294C162.062 73.7676 162.73 73.5565 163.262 73.136C163.711 72.7513 164.102 72.305 164.425 71.8104L164.417 71.8112ZM150.398 53.7354V71.0108C150.368 71.8052 150.503 72.5971 150.794 73.337C151.064 73.9225 151.678 74.2153 152.638 74.2153H153.276V74.8532H150.398C149.931 74.8622 149.464 74.8123 149.01 74.7049C148.653 74.6234 148.336 74.4194 148.114 74.1285C147.867 73.7843 147.707 73.3851 147.649 72.9654C147.552 72.318 147.509 71.6637 147.52 71.0093V64.6159H137.922V74.8525H135.043V57.5771C135.074 56.7846 134.936 55.9947 134.638 55.2597C134.375 54.6663 133.763 54.3696 132.803 54.3696H132.157V53.7324H135.043C135.51 53.7239 135.976 53.7738 136.431 53.8808C136.786 53.9669 137.102 54.1705 137.327 54.4586C137.576 54.8079 137.736 55.2132 137.793 55.6388C137.888 56.2803 137.931 56.9286 137.921 57.5771V63.3326H147.52V53.7346L150.398 53.7354Z" fill="#7C7C7C"/>
<path fill-rule="evenodd" clip-rule="evenodd" d="M150.328 95.7611C150.32 94.7263 150.477 93.6969 150.793 92.7116C151.08 91.7996 151.549 90.9552 152.171 90.2296C152.78 89.5198 153.532 88.9473 154.378 88.5502C155.318 88.1407 156.333 87.9294 157.359 87.9294C158.385 87.9294 159.399 88.1407 160.34 88.5502C161.194 88.9437 161.953 89.5165 162.565 90.2296C163.188 90.955 163.657 91.7994 163.944 92.7116C164.564 94.7008 164.564 96.8317 163.944 98.8209C163.655 99.7318 163.186 100.575 162.565 101.302C161.95 102.012 161.192 102.585 160.34 102.982C159.399 103.391 158.385 103.602 157.359 103.602C156.333 103.602 155.318 103.391 154.378 102.982C153.534 102.581 152.782 102.009 152.171 101.302C151.551 100.575 151.082 99.7317 150.793 98.8209C150.477 97.8321 150.32 96.7992 150.328 95.7611ZM161.365 95.7611C161.37 94.8944 161.275 94.0302 161.08 93.1856C160.913 92.4564 160.638 91.7564 160.264 91.1086C159.948 90.5595 159.516 90.0861 158.997 89.7215C158.521 89.3846 157.952 89.2037 157.369 89.2037C156.786 89.2037 156.217 89.3846 155.741 89.7215C155.222 90.0856 154.79 90.5591 154.474 91.1086C154.1 91.7562 153.825 92.4563 153.658 93.1856C153.279 94.8824 153.279 96.642 153.658 98.3388C153.824 99.0706 154.099 99.7733 154.474 100.423C154.79 100.972 155.223 101.446 155.741 101.81C156.217 102.147 156.786 102.328 157.369 102.328C157.952 102.328 158.521 102.147 158.997 101.81C159.515 101.445 159.948 100.972 160.264 100.423C160.639 99.7731 160.914 99.0705 161.08 98.3388C161.275 97.4936 161.371 96.6285 161.365 95.7611ZM167.56 95.7611C167.552 94.7263 167.709 93.6969 168.025 92.7116C168.312 91.7995 168.781 90.9551 169.404 90.2296C170.012 89.5196 170.764 88.9471 171.61 88.5502C172.55 88.1407 173.565 87.9294 174.591 87.9294C175.616 87.9294 176.631 88.1407 177.572 88.5502C178.425 88.9437 179.184 89.5165 179.797 90.2296C180.42 90.9552 180.889 91.7995 181.176 92.7116C181.796 94.7008 181.796 96.8317 181.176 98.8209C180.886 99.7316 180.417 100.575 179.797 101.302C179.181 102.012 178.423 102.585 177.572 102.982C176.631 103.391 175.616 103.602 174.591 103.602C173.565 103.602 172.551 103.391 171.61 102.982C170.766 102.581 170.015 102.009 169.404 101.302C168.783 100.575 168.315 99.7316 168.025 98.8209C167.708 97.8321 167.551 96.7992 167.56 95.7611ZM178.597 95.7611C178.602 94.8945 178.507 94.0302 178.313 93.1856C178.146 92.4563 177.871 91.7562 177.497 91.1086C177.181 90.5593 176.748 90.0859 176.23 89.7215C175.754 89.3846 175.185 89.2037 174.602 89.2037C174.018 89.2037 173.449 89.3846 172.973 89.7215C172.455 90.0859 172.022 90.5594 171.706 91.1086C171.332 91.7562 171.057 92.4563 170.89 93.1856C170.511 94.8824 170.511 96.642 170.89 98.3388C171.056 99.0706 171.331 99.7733 171.706 100.423C172.023 100.972 172.455 101.445 172.973 101.81C173.449 102.147 174.018 102.328 174.602 102.328C175.185 102.328 175.754 102.147 176.23 101.81C176.748 101.446 177.18 100.972 177.497 100.423C177.872 99.7732 178.147 99.0706 178.313 98.3388C178.508 97.4936 178.603 96.6285 178.598 95.7611H178.597ZM187.997 89.5234H188.152C188.642 89.0664 189.204 88.6937 189.815 88.4204C190.602 88.077 191.455 87.9094 192.314 87.9293C193.079 87.9195 193.838 88.0725 194.539 88.3781C195.281 88.7505 195.858 89.3849 196.159 90.1584C196.716 89.4293 197.452 88.8567 198.296 88.496C199.134 88.1248 200.041 87.9308 200.958 87.9263C201.535 87.9239 202.109 88.0023 202.664 88.1593C203.213 88.3229 203.707 88.6326 204.094 89.0553C204.538 89.5734 204.869 90.1778 205.067 90.8304C205.339 91.756 205.464 92.7183 205.438 93.6826V103.281H202.55V93.6841C202.55 92.0818 202.326 90.9617 201.878 90.3238C201.671 90.0169 201.389 89.7681 201.059 89.6007C200.729 89.4334 200.361 89.3531 199.991 89.3676C199.658 89.3709 199.328 89.4352 199.017 89.5575C198.682 89.6846 198.364 89.8522 198.07 90.0567C197.776 90.2544 197.499 90.4763 197.242 90.7199C197.01 90.9361 196.805 91.1791 196.63 91.4439C196.733 91.7876 196.783 92.1451 196.779 92.5039C196.79 92.9692 196.796 93.3626 196.796 93.6841V103.283H193.918V93.6841C193.918 92.0818 193.694 90.9617 193.246 90.3238C193.039 90.017 192.757 89.7681 192.426 89.6008C192.096 89.4335 191.729 89.3532 191.359 89.3676C190.731 89.3631 190.115 89.5395 189.584 89.8758C189.055 90.2009 188.574 90.5981 188.154 91.0559V103.283H185.276V92.0818C185.306 91.2899 185.171 90.5004 184.879 89.7637C184.609 89.1782 183.995 88.8855 183.036 88.8855H182.398V88.2475H185.276C185.908 88.2122 186.54 88.3271 187.119 88.5828C187.512 88.7852 187.823 89.1183 187.997 89.5249L187.997 89.5234ZM221.584 103.283H219.99L218.869 101.844H218.705C218.266 102.338 217.733 102.739 217.137 103.025C216.227 103.45 215.228 103.647 214.225 103.602C213.727 103.595 213.231 103.526 212.751 103.395C212.21 103.251 211.701 103.006 211.252 102.672C210.761 102.309 210.357 101.841 210.071 101.301C209.727 100.628 209.561 99.8778 209.589 99.1221C209.559 98.3427 209.797 97.5765 210.261 96.9501C210.736 96.3493 211.352 95.8757 212.054 95.5719C212.881 95.2102 213.755 94.9694 214.65 94.8568C215.678 94.7094 216.715 94.6372 217.753 94.641H218.709C218.728 93.7239 218.642 92.8076 218.451 91.9105C218.336 91.3135 218.099 90.747 217.753 90.2474C217.483 89.8739 217.108 89.5897 216.675 89.4314C216.249 89.2805 215.8 89.2051 215.348 89.2089C214.556 89.1815 213.773 89.3815 213.091 89.7853C212.403 90.3049 211.949 91.0765 211.83 91.9305H210.392C210.389 91.412 210.421 90.8938 210.486 90.3794C210.563 89.8712 210.809 89.4036 211.184 89.0524C211.421 88.8292 211.698 88.653 212 88.5331C212.378 88.3754 212.77 88.2568 213.172 88.1793C213.622 88.0898 214.076 88.0266 214.533 87.9901C215.01 87.9496 215.495 87.9293 215.989 87.9293C216.693 87.9275 217.396 88.0056 218.083 88.1622C218.754 88.3222 219.372 88.6546 219.875 89.1266C220.454 89.6931 220.883 90.3945 221.125 91.1679C221.462 92.2934 221.616 93.4658 221.582 94.6402L221.584 103.283ZM218.705 100.242V95.925H217.749C216.436 95.8536 215.13 96.1586 213.984 96.804C213.574 97.0359 213.232 97.3727 212.994 97.78C212.756 98.1873 212.631 98.6505 212.631 99.1221C212.622 99.5825 212.707 100.04 212.881 100.466C213.039 100.829 213.267 101.157 213.553 101.431C213.832 101.682 214.161 101.872 214.518 101.99C214.888 102.106 215.275 102.165 215.664 102.163C216.341 102.2 217.009 101.989 217.541 101.569C217.99 101.185 218.382 100.739 218.705 100.244V100.242ZM228.171 86.0103V95.4443L232.168 90.326C232.628 89.7309 233.192 89.2234 233.831 88.8276C234.592 88.4077 235.454 88.2076 236.322 88.2498H237.286V89.0501C236.724 89.0506 236.168 89.1684 235.654 89.3958C235.103 89.6439 234.619 90.0188 234.241 90.49L230.726 94.9703L234.725 100.089C235.22 100.77 235.806 101.381 236.466 101.906C236.985 102.303 237.595 102.567 238.241 102.673V103.285C238.021 103.388 237.789 103.463 237.551 103.508C237.254 103.571 236.95 103.603 236.647 103.602C235.819 103.598 235.003 103.407 234.26 103.042C233.359 102.565 232.585 101.88 232.002 101.043L228.168 95.925V103.283H225.282V86.0103C225.312 85.2184 225.177 84.429 224.885 83.6923C224.62 83.0988 224.006 82.8021 223.041 82.8021H222.404V82.1642H225.282C225.751 82.1549 226.22 82.2047 226.677 82.3125C227.032 82.3981 227.348 82.6012 227.574 82.8889C227.823 83.2386 227.983 83.6441 228.039 84.0698C228.136 84.712 228.18 85.361 228.171 86.0103ZM242.94 86.0103V103.286H240.062V86.0103C240.092 85.2184 239.957 84.4289 239.665 83.6923C239.395 83.0988 238.78 82.8021 237.821 82.8021H237.184V82.1642H240.062C240.531 82.1549 241 82.2047 241.457 82.3125C241.812 82.3984 242.128 82.6014 242.354 82.8889C242.603 83.2388 242.762 83.6442 242.818 84.0698C242.91 84.7124 242.952 85.3612 242.944 86.0103H242.94ZM250.858 84.8902C250.869 85.0833 250.839 85.2765 250.771 85.4574C250.703 85.6383 250.597 85.8029 250.461 85.9406C250.316 86.0729 250.146 86.1753 249.962 86.2419C249.777 86.3085 249.581 86.3379 249.384 86.3285C249.141 86.3275 248.901 86.272 248.682 86.1661C248.462 86.0602 248.27 85.9066 248.117 85.7166C247.769 85.3197 247.581 84.8066 247.592 84.2782C247.581 84.0842 247.611 83.89 247.681 83.7087C247.751 83.5273 247.859 83.3629 247.997 83.2264C248.141 83.0936 248.309 82.9908 248.492 82.9242C248.676 82.8576 248.871 82.8284 249.066 82.8385C249.309 82.8397 249.549 82.8953 249.768 83.0012C249.987 83.1071 250.18 83.2606 250.332 83.4504C250.682 83.8473 250.871 84.361 250.861 84.8902H250.858ZM251.048 92.0855V103.286H248.169V92.0855C248.2 91.2937 248.065 90.5043 247.773 89.7675C247.503 89.1819 246.889 88.8892 245.929 88.8892H245.291V88.2513H248.169C248.639 88.242 249.107 88.2881 249.565 88.3885C249.921 88.4749 250.236 88.6784 250.461 88.9663C250.711 89.3173 250.868 89.7255 250.918 90.1532C251.015 90.792 251.059 91.4379 251.05 92.084L251.048 92.0855ZM259.474 84.8902C259.485 85.0833 259.456 85.2765 259.387 85.4574C259.319 85.6383 259.214 85.8029 259.078 85.9406C258.933 86.0728 258.763 86.1752 258.578 86.2418C258.393 86.3083 258.197 86.3378 258.001 86.3285C257.758 86.3275 257.517 86.272 257.298 86.1661C257.079 86.0602 256.886 85.9066 256.734 85.7166C256.385 85.3198 256.197 84.8067 256.207 84.2782C256.196 84.0842 256.227 83.8901 256.297 83.7088C256.367 83.5274 256.474 83.363 256.612 83.2264C256.756 83.0937 256.924 82.9911 257.108 82.9244C257.291 82.8578 257.486 82.8286 257.681 82.8385C257.925 82.8395 258.165 82.895 258.384 83.0009C258.603 83.1068 258.796 83.2604 258.948 83.4504C259.297 83.8479 259.485 84.3615 259.474 84.8902ZM259.664 92.0855V103.286H256.786V92.0855C256.816 91.2937 256.681 90.5042 256.389 89.7675C256.119 89.1819 255.505 88.8892 254.546 88.8892H253.908V88.2513H256.786C257.255 88.242 257.724 88.2881 258.182 88.3885C258.537 88.4749 258.853 88.6784 259.078 88.9663C259.327 89.3175 259.484 89.7256 259.534 90.1532C259.632 90.792 259.676 91.4379 259.667 92.084L259.664 92.0855ZM264.541 103.286V92.0855C264.571 91.2937 264.436 90.5042 264.144 89.7675C263.874 89.1819 263.259 88.8892 262.3 88.8892H261.662V88.2513H264.541C265.173 88.216 265.805 88.3309 266.385 88.5865C266.777 88.7886 267.088 89.1205 267.264 89.5256H267.419C267.908 89.0686 268.47 88.6959 269.081 88.4226C269.868 88.0793 270.721 87.9117 271.58 87.9315C272.253 87.9306 272.924 88.0088 273.579 88.1645C274.221 88.3221 274.817 88.6291 275.319 89.0605C275.866 89.5451 276.289 90.1538 276.552 90.8356C276.89 91.7473 277.048 92.716 277.017 93.6878V103.286H274.138V93.6841C274.155 92.9997 274.053 92.3176 273.837 91.6679C273.671 91.1674 273.398 90.7089 273.037 90.3238C272.724 89.9981 272.34 89.7478 271.916 89.5917C271.501 89.4425 271.064 89.3672 270.623 89.3691C269.995 89.3646 269.379 89.541 268.849 89.8772C268.32 90.2023 267.838 90.5995 267.419 91.0574V103.284L264.541 103.286ZM284.46 84.8902C284.471 85.0833 284.442 85.2765 284.374 85.4574C284.305 85.6383 284.2 85.8029 284.064 85.9406C283.919 86.0729 283.749 86.1753 283.564 86.2419C283.38 86.3085 283.183 86.3379 282.987 86.3285C282.744 86.3275 282.504 86.272 282.284 86.1661C282.065 86.0602 281.872 85.9066 281.72 85.7166C281.372 85.3196 281.184 84.8065 281.195 84.2782C281.184 84.0842 281.215 83.8901 281.284 83.7088C281.354 83.5274 281.462 83.363 281.6 83.2264C281.743 83.0937 281.912 82.9909 282.095 82.9243C282.279 82.8577 282.474 82.8285 282.669 82.8385C282.912 82.8397 283.152 82.8953 283.371 83.0012C283.59 83.1071 283.782 83.2606 283.934 83.4504C284.285 83.8471 284.474 84.3609 284.464 84.8902H284.46ZM284.651 92.0855V103.286H281.772V92.0855C281.803 91.2937 281.668 90.5042 281.376 89.7675C281.105 89.1819 280.49 88.8892 279.532 88.8892H278.894V88.2513H281.772C282.241 88.242 282.71 88.2881 283.168 88.3885C283.523 88.4749 283.839 88.6784 284.064 88.9663C284.314 89.3174 284.471 89.7255 284.521 90.1532C284.618 90.7921 284.663 91.4379 284.655 92.084L284.651 92.0855ZM291.931 86.0111V95.4451L295.93 90.3268C296.389 89.7315 296.953 89.2239 297.592 88.8283C298.353 88.4085 299.215 88.2084 300.082 88.2505H301.047V89.0509C300.485 89.0511 299.929 89.1689 299.415 89.3966C298.864 89.6444 298.38 90.0194 298.002 90.4907L294.486 94.9711L298.485 100.089C298.98 100.771 299.566 101.382 300.225 101.907C300.745 102.304 301.354 102.567 302 102.674V103.286C301.781 103.389 301.549 103.464 301.311 103.508C301.013 103.572 300.71 103.604 300.406 103.602C299.578 103.599 298.762 103.407 298.019 103.043C297.119 102.566 296.345 101.881 295.762 101.044L291.927 95.9257V103.284H289.041V86.0103C289.071 85.2184 288.936 84.4289 288.644 83.6923C288.38 83.0988 287.766 82.8021 286.801 82.8021H286.163V82.1642H289.041C289.511 82.155 289.98 82.2048 290.437 82.3125C290.792 82.3981 291.108 82.6012 291.333 82.8889C291.582 83.2386 291.742 83.6441 291.798 84.0698C291.897 84.7118 291.942 85.3609 291.934 86.0103L291.931 86.0111ZM137.926 86.0111V102.002H149.282V103.286H135.047V86.0103C135.078 85.2177 134.94 84.4275 134.642 83.6923C134.379 83.0988 133.767 82.8021 132.807 82.8021H132.161V82.1642H135.047C135.514 82.1552 135.98 82.205 136.435 82.3125C136.79 82.3978 137.106 82.601 137.331 82.8889C137.58 83.2386 137.74 83.644 137.796 84.0698C137.893 84.712 137.938 85.361 137.928 86.0103L137.926 86.0111Z" fill="#111111"/>
</svg>
