<?xml version="1.0" encoding="utf-8"?>
<!-- Generator: Adobe Illustrator 21.1.0, SVG Export Plug-In . SVG Version: 6.00 Build 0)  -->
<svg version="1.1" id="Layer_1" xmlns="http://www.w3.org/2000/svg" xmlns:xlink="http://www.w3.org/1999/xlink" x="0px" y="0px"
	 viewBox="0 0 248.4 80.4" style="enable-background:new 0 0 248.4 80.4;" xml:space="preserve">
<style type="text/css">
	.st0{fill:#FFCF88;}
	.st1{fill:#D3E280;}
	.st2{fill:#DC9A6D;}
	.st3{fill:#A2DCE9;}
	.st4{fill:#F48586;}
	.st5{fill:#FBF38F;}
</style>
<path class="st0" d="M143.4,52.9c0,0.6,0.1,1.2,0.1,1.8c0,0.6,0.1,1.3,0.2,2.1c0.1,0.7,0.2,1.4,0.4,2.1c0.2,0.7,0.4,1.3,0.7,1.9
	c0.8,0.6,1.5,1.1,2.2,1.3c0.7,0.2,1.4,0.3,2.1,0.4c0.7,0,1.4,0,1.9,0c0.5,0,1.1,0,1.6,0h3.9v0.9c0,1.2,0,2.2,0.1,3.1
	c0,0.9,0.1,1.9,0.1,3c0,0.9-0.1,2.1-0.2,3.4c-0.4,0-0.8-0.1-1.1-0.1h-1.1h-1.6c-0.5,0-1.1,0-1.6,0.1c-1.1,0-2.1-0.1-3-0.2
	c-0.8-0.1-1.4-0.1-2-0.1c-0.5,0-1.1,0-1.6-0.1c-0.5-0.1-1-0.2-1.5-0.3c-0.5-0.1-1-0.2-1.6-0.5c-1.1-0.4-2.1-0.9-3-1.4
	c-0.9-0.6-1.7-1.3-2.4-2.1c-0.7-0.8-1.3-1.8-1.7-2.9c-0.4-1.1-0.8-2.4-1-3.9c-0.3-1.9-0.4-3.8-0.5-5.9c-0.1-2.1-0.1-3.9-0.2-5.4
	c0-1.6,0.1-3.3,0.3-5.1c0.2-1.8,0.7-3.5,1.6-5.1c0.5-0.9,1.2-1.8,2-2.7c0.8-0.8,1.8-1.5,3-2.1c1.2-0.6,2.6-1.1,4.2-1.4
	c1.6-0.3,3.6-0.5,5.8-0.5c2.3,0,4.9,0.2,7.9,0.6l0.1,14.4l-6.4,0.3l-0.6-4.7c-0.8,0-1.4,0.1-1.9,0.1c-0.5,0-0.9,0.1-1.3,0.2
	c-0.4,0.1-0.8,0.3-1.2,0.5c-0.4,0.2-0.9,0.5-1.6,1c-0.3,0.5-0.6,1.1-0.8,1.7c-0.2,0.6-0.3,1.3-0.3,1.9c0,0.7-0.1,1.3-0.1,1.9
	C143.2,51.8,143.3,52.4,143.4,52.9"/>
<path class="st1" d="M183.8,64.1l-0.2,8.3L161,72.7h-0.2v-8.2l6-0.5l0.1-21.4l-5.6-0.3l-0.1-7.5l16.8,0.3c0,0.6-0.1,1.6-0.1,2.7
	c0,1.2,0,2.5-0.1,4v9.5c0,3.8,0,7.9,0.1,12.4L183.8,64.1z M172.1,19.4c2,0,3.6,0.7,4.7,2.1c1.2,1.4,1.6,3.4,1.3,6
	c-0.3,1.2-1,2.2-2,2.9c-1,0.7-2.5,1.2-4.4,1.4c-0.5,0.1-1.1,0-1.8-0.3c-0.6-0.3-1.3-0.6-1.9-1.2c-0.6-0.5-1.1-1.1-1.5-1.7
	c-0.3-0.6-0.6-1.3-0.7-2.1c-0.1-0.9,0-1.9,0.2-2.7c0.2-0.9,0.5-1.6,1-2.3c0.5-0.7,1.1-1.2,2-1.6C170,19.6,170.9,19.4,172.1,19.4"/>
<path class="st2" d="M187.4,43.9c-0.8-0.1-1.6-0.1-2.3-0.1c-0.7,0-1.6,0-2.8,0c-0.1-2.4-0.1-4.2-0.1-5.6v-3.8h2.2h1.5
	c0.5,0,0.9,0,1.2-0.1c0.3-0.1,0.5-0.2,0.5-0.2v-2.3c0-1.2,0-2.4-0.1-3.8v-5h10.3l0.5,10.9c0.8,0,1.6,0.1,2.5,0.1
	c0.9,0,1.7,0,2.5,0.1c0.8,0,1.5,0.1,2.1,0.1c0.6,0,0.9,0.1,1.1,0.2c0,1,0.1,2.1,0.2,3.1c0.1,0.9,0.1,1.8,0.2,2.8
	c0,1,0.1,1.9,0.1,2.7v0.9c-1.5,0-2.8,0-4,0c-1.2,0-2.6,0.1-4.3,0.1l0.4,15.8c0.1,0.8,0.2,1.4,0.4,1.7c0.2,0.4,0.5,0.7,0.8,0.9
	c0.3,0.2,0.6,0.3,1,0.3c0.4,0,0.8,0,1.3,0.1h1.1c0.2,0,0.4,0,0.7,0.1c0.3,0,0.6,0,1.1,0c0.5,0,1.2-0.1,2.3-0.1l0.4,10.1
	c-2.7,0.3-5.1,0.4-7.1,0.4c-2.3,0-4.1-0.1-5.5-0.3c-1.4-0.2-2.3-0.4-2.9-0.6c-0.6-0.2-1.1-0.6-1.6-1.1c-0.5-0.5-1-1.1-1.4-1.7
	s-0.8-1.2-1-1.8c-0.3-0.6-0.4-1.1-0.4-1.5c-0.1-1.3-0.1-2.7-0.2-4.2c0-1.6-0.1-3.2-0.2-4.9c-0.1-1.7-0.1-3.3-0.2-4.8
	c0-1.5-0.1-2.9-0.1-4.1c0-1.3,0-2.3-0.1-3C187.5,44.5,187.4,44,187.4,43.9"/>
<path class="st0" d="M243.3,37.7c-0.8,2.3-1.5,4.3-2.1,6c-0.5,1.7-1.1,3.3-1.5,4.8c-0.5,1.5-1,3-1.5,4.6c-0.5,1.6-1.1,3.4-1.6,5.5
	c-0.3,1.2-0.7,2.6-1,4.1c-0.3,1.6-0.8,3.2-1.3,4.9c-0.5,1.7-1.2,3.3-2,4.9c-0.8,1.6-1.8,2.9-3.1,4c-1.5,1.4-3.4,2.2-5.6,2.5
	c-2.3,0.3-5.1,0.5-8.4,0.5h-3.9l0.9-10.1h3c1,0,1.9-0.1,2.7-0.3c0.8-0.2,1.5-0.4,2-0.8c0.5-0.3,0.9-0.8,1.1-1.4
	c0.2-0.7,0.4-1.4,0.6-1.9c0.2-0.5,0.4-1,0.6-1.5c0.2-0.5,0.4-1,0.5-1.7c0.1-0.6,0.3-1.4,0.6-2.3c-1.2-4.1-2.5-7.9-3.9-11.5
	c-1.4-3.6-2.8-7.2-4.1-10.7l-5,0.1l0.1-8.9l13.2-0.3c0.6,1.3,1.2,2.7,1.7,4.4c0.5,1.7,1.2,3.8,1.9,6.4c0.5,1.8,1,3.3,1.3,4.3
	c0.4,1.1,0.8,2.1,1.1,3c0.6-1.5,1.2-3,1.7-4.6c0.5-1.6,1-3.2,1.5-4.8c0.5-1.6,1-3.1,1.5-4.5c0.5-1.4,1-2.7,1.5-3.9
	c0.4,0,1-0.1,1.8-0.1h2.6h2.8c0.9,0,1.8,0,2.7,0.1h2.8l-0.4,9.2L243.3,37.7z"/>
<path class="st3" d="M73.2,58.8c0.2,0.4,0.7,0.7,1.5,0.9c0.8,0.2,1.8,0.4,3.1,0.5c1.3,0.1,2.6,0.2,4.1,0.1c1.5,0,3-0.1,4.7-0.2
	l-0.1,9.7c-1.2,0-2.3,0.1-3.4,0.1C82,70,81,70,80,70c-3.8,0-6.9-0.2-9.4-0.6c-2.5-0.4-4.3-1.4-5.5-2.8c-0.7-0.8-1.3-1.9-1.7-3.2
	c-0.4-1.3-0.8-2.8-1.1-4.4c-0.3-1.6-0.5-3.3-0.5-5.1c0-1.8-0.1-3.4-0.2-5c0-1,0-2,0.1-2.9c0-0.9,0.1-1.7,0.1-2.5
	c0.1-1.3,0.2-2.7,0.4-4.1c0.2-1.4,0.5-2.7,1.1-3.9c0.5-1.2,1.4-2.3,2.5-3.2c1.1-0.9,2.7-1.6,4.6-1.9c1.1-0.1,2.1-0.2,3-0.2
	c0.9,0,1.8-0.1,2.6-0.1c1.8,0,3.3,0.1,4.5,0.3c1.2,0.2,2.2,0.5,2.9,0.9c0.8,0.4,1.4,0.8,1.8,1.2c0.4,0.4,0.8,0.9,1,1.4
	c0.4,0.7,0.8,1.6,1.1,2.6c0.3,1,0.5,2.2,0.6,3.5c0.1,0.7,0.1,1.4,0.1,2v2.7v1.5c0,0.6,0,1.6-0.1,2.8c-0.1,1.2-0.1,2.7-0.1,4.5
	c-2.8,0.1-5.4,0.1-7.9,0.1c-2.4,0-4.8,0-7.2,0c0,0.7,0,1.4,0,2.3C72.6,56.8,72.8,57.7,73.2,58.8 M80.4,46.2c0-1,0.1-1.8,0.1-2.5
	c0-0.6,0-1.2,0.1-1.6c0-0.5,0-0.8-0.1-1.1c-0.1-0.4-0.3-0.8-0.5-1.2c-0.2-0.3-0.5-0.6-1-0.8c-0.5-0.2-1.1-0.3-2-0.3
	c-0.9,0-1.5,0.2-2,0.4c-0.4,0.2-0.7,0.5-0.9,0.8c-0.2,0.3-0.2,0.7-0.2,1.2c0,0.3-0.1,0.6-0.1,1.1v1.6v2.4H80.4z"/>
<path class="st4" d="M96.7,43.6c-0.8-0.1-1.6-0.1-2.3-0.1c-0.7,0-1.6,0-2.8,0c-0.1-2.4-0.1-4.2-0.1-5.6v-3.8h2.2h1.5
	c0.5,0,0.9,0,1.2-0.1c0.3-0.1,0.5-0.2,0.5-0.2v-2.3c0-1.2,0-2.4-0.1-3.8v-5h10.3l0.5,10.9c0.8,0,1.6,0.1,2.5,0.1s1.7,0,2.5,0.1
	c0.8,0,1.5,0.1,2.1,0.1c0.6,0,0.9,0.1,1.1,0.2c0,1,0.1,2.1,0.2,3.1c0.1,0.9,0.1,1.8,0.2,2.8c0,1,0.1,1.9,0.1,2.7v0.9
	c-1.5,0-2.8,0-4,0c-1.2,0-2.6,0.1-4.3,0.1l0.4,15.8c0.1,0.8,0.2,1.4,0.4,1.7c0.2,0.4,0.5,0.7,0.8,0.9c0.3,0.2,0.6,0.3,1,0.3
	c0.4,0,0.8,0,1.3,0.1h1.1c0.2,0,0.4,0,0.7,0.1c0.3,0,0.6,0,1.1,0c0.5,0,1.2-0.1,2.3-0.1l0.4,10.1c-2.7,0.3-5.1,0.4-7.1,0.4
	c-2.3,0-4.1-0.1-5.5-0.3c-1.4-0.2-2.3-0.4-2.9-0.6c-0.6-0.2-1.1-0.6-1.6-1.1c-0.5-0.5-1-1.1-1.4-1.7c-0.4-0.6-0.8-1.2-1-1.8
	c-0.3-0.6-0.4-1.1-0.4-1.5c-0.1-1.3-0.1-2.7-0.2-4.2c0-1.6-0.1-3.2-0.2-4.9c-0.1-1.7-0.1-3.3-0.2-4.8c0-1.5-0.1-2.9-0.1-4.1
	c0-1.3,0-2.3-0.1-3C96.8,44.1,96.8,43.7,96.7,43.6"/>
<polygon class="st5" points="30.3,0 26.2,11.8 14.8,17.4 3.3,13.2 0,22.6 8.9,25.8 5.7,34.9 14.9,38.2 19,26.4 30.4,20.9 41.9,25 
	45.2,15.6 36.3,12.4 39.5,3.3 "/>
<path class="st2" d="M57.9,42.4c0-0.7-0.1-1.4-0.3-2.1c-0.2-0.7-0.4-1.4-0.6-2.1c-0.2-0.7-0.5-1.3-0.9-1.8c-0.5-0.6-0.9-1.1-1.1-1.6
	c-0.2-0.5-0.5-1-0.9-1.4c-0.4-0.4-0.9-0.8-1.7-1.2c-0.8-0.4-1.9-0.8-3.3-1.2c-1.6,0-2.8,0.1-3.7,0.3c-0.9,0.1-1.7,0.4-2.3,0.8
	c-0.7,0.4-1.3,0.8-1.8,1.4c-0.5,0.5-1.1,1-1.8,1.7l-1.8-2.8l-3.4-5l-9.7,4.5v0.1c0,0.3,0.1,0.7,0.4,1.4c0.3,0.6,0.6,1.3,1,2.1
	c0.4,0.8,0.7,1.5,1,2.3c0.3,0.8,0.5,1.5,0.6,2.1c0.2,1.4,0.3,2.8,0.4,4.3c0,0.1,0,0.1,0,0.2h0l0,0.4h0l0.1,27l-5.1,0.6l-0.1,8
	l22-0.3v-7.8l-5.3-0.5l-0.2-5.4c1.2,0.8,2.5,1.4,3.9,1.7c1.4,0.3,2.7,0.4,3.9,0.3c1.2-0.1,2.3-0.3,3.2-0.6c1-0.3,1.7-0.6,2.2-1
	c0.8-0.6,1.7-1.4,2.6-2.7c0.9-1.2,1.5-2.7,1.7-4.5c0.2-1.5,0.4-3,0.4-4.5c0.1-1.5,0.2-3,0.3-4.3c0.1-1.4,0.1-2.6,0.1-3.8v-2.7
	C57.9,43.7,57.9,43.1,57.9,42.4 M46,48.6c0,1.5-0.1,2.8-0.1,4.1c0,1.3-0.1,2.3-0.2,3c-0.1,0.8-0.1,1.2-0.1,1.3c0,0-0.1,0.2-0.1,0.6
	c0,0.3-0.1,0.7-0.3,1c-0.2,0.3-0.4,0.6-0.6,0.9c-0.3,0.3-0.6,0.5-1,0.6c-0.3,0-0.6,0-0.9-0.1c-0.3-0.1-0.5-0.3-0.9-0.6
	c-0.3-0.3-0.6-0.6-0.8-0.9c-0.2-0.3-0.2-0.6-0.2-1l-0.4-14.5c0.1-0.7,0.3-1.3,0.7-1.7c0.4-0.4,1.1-0.6,2.1-0.8c0.5,0,1,0.1,1.3,0.3
	c0.3,0.2,0.6,0.5,0.8,0.8c0.2,0.4,0.4,0.8,0.4,1.2c0.1,0.4,0.1,0.9,0.1,1.3C46,45.7,46,47.2,46,48.6"/>
</svg>
