<svg xmlns="http://www.w3.org/2000/svg" xmlns:xlink="http://www.w3.org/1999/xlink" viewBox="0 0 58 61"><defs><path id="a" d="M34 48.6s-.2 6.3-8.6 11C11 57.4 0 45 0 30 0 13.8 12.8.6 28.9 0l2.5 6.4c-3.1 1.5-5.4 3.2-7 5.3-2.1 2.6-2.4 5.2-2.6 6.7 0 .2-.1.4-.1.6-.1.7-.2 1.2-.2 1.6 0 .2 0 .4-.1.6-.1.1-.2.2-.4.3-1.4 1.1-6.4 3.4-7.6 3.8 0 0-.1 0-.2.1-1.9.7-3 2.7-2.5 4.7.3 1.5 1.2 4.3 3.2 6.8 1.1 1.4 2.5 2.6 4 3.4 1.8 1 3.8 1.5 6 1.5 1 0 2.1-.1 3.2-.3 2.8-.6 4.4-.7 5.3-.7 1.2 2.7 1.8 5.4 1.6 7.8z"/></defs><use xlink:href="#a" overflow="visible" fill-rule="evenodd" clip-rule="evenodd" fill="#ffc825"/><g><defs><path id="b" d="M29.7 60.8s13.2-7.7 5.1-23.4c0 0-.6-1.6-9 .1-8.4 1.7-11-5.5-11.7-8.3 0 0 6.6-2.8 8.8-4.5 2.2-1.7 1.7-2.4 2.2-5 .5-2.6.1-7.2 10.7-11.1l-2.7-6.8s11.4.3 15.1 8.5c.1 0 7.3 2.1 9.6 9.8 0 0-5-4.6-13-4.2l-6.4-3 1.7 4s-6.3 2.4-7.3 7c-.3 1.5-.3 1.6-.1 3 .1 1.1-.6 2-1.5 2.4 0 0 1.2 5.5 6.8 5.5 1.3 0 3.5-.8 3.8-.9.2.1 11.1 22.3-12.1 26.9z"/></defs><use xlink:href="#b" overflow="visible" fill-rule="evenodd" clip-rule="evenodd" fill="#2753ae"/></g></svg>